# Blender v2.76 (sub 0) OBJ File: ''
# www.blender.org
mtllib rcube.mtl
o Cube
v 0.540554 -0.178557 -0.972280
v 0.540554 -0.178557 1.027720
v -1.459446 -0.178557 1.027720
v -1.459446 -0.178557 -0.972280
v 0.540555 1.821443 -0.972279
v 0.540553 1.821443 1.027721
v -1.459446 1.821443 1.027720
v -1.459446 1.821443 -0.972280
vt 0.000000 0.000000
vt 1.000000 0.000000
vt 1.000000 1.000000
vt 0.000000 1.000000
vn 0.000000 -1.000000 0.000000
vn 0.000000 1.000000 0.000000
vn 1.000000 0.000000 0.000000
vn -0.000000 0.000000 1.000000
vn -1.000000 -0.000000 -0.000000
vn 0.000000 0.000000 -1.000000
usemtl Material
s off
f 1/1/1 2/2/1 3/3/1
f 8/2/2 7/3/2 6/4/2
f 5/2/3 6/3/3 2/4/3
f 6/2/4 7/3/4 3/4/4
f 7/2/5 8/3/5 4/4/5
f 1/2/6 4/3/6 8/4/6
f 4/4/1 1/1/1 3/3/1
f 5/1/2 8/2/2 6/4/2
f 1/1/3 5/2/3 2/4/3
f 2/1/4 6/2/4 3/4/4
f 3/1/5 7/2/5 4/4/5
f 5/1/6 1/2/6 8/4/6
