# Blender v2.76 (sub 0) OBJ File: ''
# www.blender.org
mtllib sample_cube.mtl
o Cube
v 1.038166 0.073244 -0.996104
v 1.038166 0.073244 1.003896
v -0.961834 0.073244 1.003896
v -0.961833 0.073244 -0.996104
v 1.038167 2.073244 -0.996104
v 1.038166 2.073244 1.003897
v -0.961834 2.073244 1.003896
v -0.961834 2.073244 -0.996104
vt 0.996273 0.491275
vt 0.504348 0.493960
vt 0.504348 0.998658
vt 0.998758 0.491275
vt 0.509317 0.493960
vt 0.511801 0.995973
vt 0.500621 0.485906
vt 0.503106 1.000000
vt 0.000000 1.000000
vt 0.501863 0.477852
vt 0.504348 0.008054
vt 0.993789 0.010738
vt 0.501863 0.995973
vt 0.496895 0.491275
vt 0.002484 0.493960
vt 0.996273 0.005369
vt 0.504348 0.005369
vt 0.996273 0.995973
vt 0.998758 0.995973
vt 0.002484 0.488591
vt 0.993789 0.483221
vt 0.002484 0.995973
vt 0.996273 0.477852
vn 0.000000 -1.000000 -0.000000
vn 0.000000 1.000000 0.000000
vn 1.000000 0.000000 0.000000
vn -0.000000 0.000000 1.000000
vn -1.000000 -0.000000 -0.000000
vn 0.000000 0.000000 -1.000000
usemtl Material
s off
f 2/1/1 3/2/1 4/3/1
f 8/4/2 7/5/2 6/6/2
f 5/7/3 6/8/3 2/9/3
f 6/10/4 7/11/4 3/12/4
f 3/13/5 7/14/5 8/15/5
f 1/16/6 4/17/6 8/10/6
f 1/18/1 2/1/1 4/3/1
f 5/19/2 8/4/2 6/6/2
f 1/20/3 5/7/3 2/9/3
f 2/21/4 6/10/4 3/12/4
f 4/22/5 3/13/5 8/15/5
f 5/23/6 1/16/6 8/10/6
